# Blender v3.5.1 OBJ File: 'SplitObjectsLevel.blend'
# www.blender.org
mtllib Column.mtl
o Column
v -0.540727 0.508889 -0.453752
v -0.540727 0.508889 0.453752
v 0.540727 0.508889 -0.453752
v 0.540727 0.508889 0.453752
v 0.453752 0.290631 0.540727
v 0.540727 0.290631 0.453752
v 0.540727 0.290631 -0.453752
v 0.453752 0.290631 -0.540727
v -0.453752 0.290631 -0.540727
v -0.540727 0.290631 -0.453752
v -0.540727 0.290631 0.453752
v -0.453752 0.290631 0.540727
v -0.556261 0.008336 0.652060
v -0.652059 0.008336 0.556261
v -0.652060 0.008336 -0.556261
v -0.556261 0.008336 -0.652059
v 0.652060 0.008336 0.556261
v 0.556261 0.008336 0.652059
v 0.556261 0.008336 -0.652060
v 0.652059 0.008336 -0.556261
v -0.595587 0.277396 0.499788
v -0.499788 0.277396 0.595587
v -0.641206 0.231777 0.545407
v -0.545407 0.231777 0.641206
v -0.499788 0.277396 -0.595587
v -0.595587 0.277396 -0.499788
v -0.545407 0.231777 -0.641206
v -0.641206 0.231777 -0.545407
v 0.499788 0.277396 0.595587
v 0.595587 0.277396 0.499788
v 0.545407 0.231777 0.641206
v 0.641206 0.231777 0.545407
v 0.595587 0.277396 -0.499788
v 0.499788 0.277396 -0.595587
v 0.641206 0.231777 -0.545407
v 0.545407 0.231777 -0.641206
v -0.453752 0.508889 0.540727
v 0.453752 0.508889 0.540727
v 0.453752 0.508889 -0.540727
v -0.453752 0.508889 -0.540727
v 0.416093 0.795179 0.495850
v 0.495850 0.795179 0.416093
v 0.495850 0.795179 -0.416093
v 0.416093 0.795179 -0.495850
v -0.416093 0.933696 0.495850
v 0.416093 0.933696 0.495850
v -0.495850 0.933696 -0.416093
v -0.495850 0.933696 0.416093
v 0.495850 0.933696 -0.416093
v 0.495850 0.933696 0.416093
v -0.416093 0.933696 -0.495850
v 0.416093 0.933696 -0.495850
v -0.487219 0.431889 0.571127
v -0.571127 0.431889 0.487219
v -0.571127 0.431889 -0.487219
v -0.487219 0.431889 -0.571127
v 0.571127 0.431889 0.487219
v 0.487219 0.431889 0.571127
v 0.487219 0.431889 -0.571127
v 0.571127 0.431889 -0.487219
v -0.521663 0.795179 0.437755
v -0.437755 0.795179 0.521663
v -0.561621 0.685332 0.477712
v -0.477712 0.685332 0.561621
v -0.437755 0.795179 -0.521663
v -0.521663 0.795179 -0.437755
v -0.477712 0.729337 -0.561621
v -0.561621 0.729337 -0.477712
v 0.437755 0.795179 0.521663
v 0.521663 0.795179 0.437755
v 0.477712 0.729337 0.561621
v 0.561621 0.729337 0.477712
v 0.521663 0.795179 -0.437755
v 0.437755 0.795179 -0.521663
v 0.561621 0.729337 -0.477712
v 0.477712 0.729337 -0.561621
v -0.416093 0.795179 -0.495850
v -0.495850 0.795179 -0.416093
v -0.495850 0.795179 0.416093
v -0.416093 0.795179 0.495850
v -0.399143 0.933696 0.475651
v -0.475651 0.933696 0.399143
v -0.475651 0.933696 -0.399143
v -0.399143 0.933696 -0.475651
v 0.399143 0.933696 -0.475651
v 0.475651 0.933696 -0.399143
v 0.475651 0.933696 0.399143
v 0.399143 0.933696 0.475651
v -0.399143 1.695571 0.475651
v -0.475651 1.695571 0.399143
v -0.475651 1.695571 -0.399143
v -0.399143 1.695571 -0.475651
v 0.399143 1.695571 -0.475651
v 0.475651 1.695571 -0.399143
v 0.475651 1.695571 0.399143
v 0.399143 1.695571 0.475651
v -0.370189 1.732767 0.441146
v -0.441146 1.732767 0.370189
v -0.441146 1.732767 -0.370189
v -0.370189 1.732767 -0.441146
v 0.370189 1.732767 -0.441146
v 0.441146 1.732767 -0.370189
v 0.441146 1.732767 0.370189
v 0.370189 1.732767 0.441146
v -0.370189 1.753485 0.441146
v -0.441146 1.753485 0.370189
v -0.441146 1.753485 -0.370189
v -0.370189 1.753485 -0.441146
v 0.370189 1.753485 -0.441146
v 0.441146 1.753485 -0.370189
v 0.441146 1.753485 0.370189
v 0.370189 1.753485 0.441146
v -0.399212 1.785116 0.475733
v -0.475733 1.785116 0.399212
v -0.475733 1.785116 -0.399212
v -0.399212 1.785116 -0.475733
v 0.399212 1.785116 -0.475733
v 0.475733 1.785116 -0.399212
v 0.475733 1.785116 0.399212
v 0.399212 1.785116 0.475733
v -0.399212 2.769651 0.475733
v -0.475733 2.769651 0.399212
v -0.475733 2.769651 -0.399212
v -0.399212 2.769651 -0.475733
v 0.399212 2.769651 -0.475733
v 0.475733 2.769651 -0.399212
v 0.475733 2.769651 0.399212
v 0.399212 2.769651 0.475733
v -0.376851 2.801282 0.449085
v -0.449085 2.801282 0.376851
v -0.449085 2.801282 -0.376851
v -0.376851 2.801282 -0.449085
v 0.376851 2.801282 -0.449085
v 0.449085 2.801282 -0.376851
v 0.449085 2.801282 0.376851
v 0.376851 2.801282 0.449085
v -0.376851 2.817876 0.449085
v -0.449085 2.817876 0.376851
v -0.449085 2.817876 -0.376851
v -0.376851 2.817876 -0.449085
v 0.376851 2.817876 -0.449085
v 0.449085 2.817876 -0.376851
v 0.449085 2.817876 0.376851
v 0.376851 2.817876 0.449085
v -0.394568 2.850443 0.470199
v -0.470199 2.850443 0.394568
v -0.470199 2.850443 -0.394568
v -0.394568 2.850443 -0.470199
v 0.394568 2.850443 -0.470199
v 0.470199 2.850443 -0.394568
v 0.470199 2.850443 0.394568
v 0.394568 2.850443 0.470199
v -0.394568 3.753236 0.470199
v -0.470199 3.753236 0.394568
v -0.470199 3.753236 -0.394568
v -0.394568 3.753236 -0.470199
v 0.394568 3.753236 -0.470199
v 0.470199 3.753236 -0.394568
v 0.470199 3.753236 0.394568
v 0.394568 3.753236 0.470199
v -0.472947 3.753236 0.563601
v -0.563601 3.753236 0.472947
v -0.563601 3.753236 -0.472947
v -0.472947 3.753236 -0.563601
v 0.472947 3.753236 -0.563601
v 0.563601 3.753236 -0.472947
v 0.563601 3.753236 0.472947
v 0.472947 3.753236 0.563601
v -0.472947 4.027846 0.563601
v -0.462182 4.073401 0.537612
v -0.537612 4.073401 0.462182
v -0.563601 4.027846 0.472947
v -0.563601 4.027846 -0.472947
v -0.537612 4.073401 -0.462182
v -0.462182 4.073401 -0.537612
v -0.472947 4.027846 -0.563601
v 0.472947 4.027846 -0.563601
v 0.462182 4.073401 -0.537612
v 0.537612 4.073401 -0.462182
v 0.563601 4.027846 -0.472947
v 0.563601 4.027846 0.472947
v 0.537612 4.073401 0.462182
v 0.462182 4.073401 0.537612
v 0.472947 4.027846 0.563601
v 0.475651 1.467008 -0.399143
v 0.475651 1.467008 0.399143
v 0.362009 1.467008 0.475651
v -0.370039 1.452456 0.475651
v 0.356765 1.467008 -0.475651
v -0.475651 1.467008 0.399143
v -0.399143 1.467008 -0.475651
v -0.475651 1.467008 -0.399143
v 0.475733 2.487265 -0.339182
v 0.475733 2.487265 0.399212
v 0.399212 2.487265 0.475733
v -0.399212 2.293447 0.475733
v 0.399212 2.487265 -0.475733
v -0.475733 2.293447 0.399212
v -0.399212 2.293447 -0.475733
v -0.475733 2.293447 -0.399212
v 0.475733 2.628458 -0.339182
v 0.355345 2.628458 0.475733
v 0.399212 2.628458 -0.475733
v -0.399212 2.434640 -0.475733
v 0.475733 2.628458 0.399212
v -0.399212 2.434640 0.475733
v -0.475733 2.434640 0.326282
v -0.475733 2.434640 -0.399212
v 0.470199 3.053960 -0.394568
v 0.470199 3.053960 0.394568
v 0.355338 3.053960 0.470199
v -0.394568 3.053960 0.470199
v 0.336658 3.053960 -0.470199
v -0.470199 3.053960 0.394568
v -0.394568 3.053960 -0.470199
v -0.470199 3.053960 -0.394568
v 0.475651 1.275275 0.399143
v -0.380502 1.265955 0.475651
v -0.475651 1.275275 0.399143
v -0.475651 1.275275 -0.399143
v 0.475651 1.275275 -0.399143
v 0.417411 1.275275 0.475651
v 0.372000 1.275275 -0.475651
v -0.399143 1.275275 -0.475651
vn 0.0000 0.7071 -0.7071
vn 0.0000 0.7071 0.7071
vn -0.0000 0.0485 -0.9988
vn 0.0000 0.0485 0.9988
vn 0.9988 0.0485 -0.0000
vn 0.2345 0.9721 0.0000
vn 0.7071 0.7071 0.0000
vn -0.7071 0.7071 0.0000
vn -0.9988 0.0485 0.0000
vn -0.4082 0.8165 0.4082
vn -0.4082 0.8165 -0.4082
vn 0.4082 0.8165 -0.4082
vn 0.4082 0.8165 0.4082
vn 0.7054 0.0685 0.7054
vn -0.7054 0.0685 0.7054
vn -0.7054 0.0685 -0.7054
vn 0.7054 0.0685 -0.7054
vn 0.0000 -1.0000 0.0000
vn 0.0000 0.9721 0.2345
vn 0.1290 0.9832 0.1290
vn 0.1290 0.9832 -0.1290
vn 0.0000 0.9721 -0.2345
vn -0.2345 0.9721 0.0000
vn -0.1290 0.9832 -0.1290
vn -0.1290 0.9832 0.1290
vn 0.0000 1.0000 -0.0000
vn 0.0000 0.5188 -0.8549
vn -0.0234 0.5082 0.8609
vn 0.0000 0.0319 -0.9995
vn 0.0000 0.0375 0.9993
vn 0.9995 0.0319 0.0000
vn 0.8549 0.5188 0.0000
vn -0.9398 0.3418 0.0000
vn -0.9993 0.0375 0.0000
vn -0.6288 0.4574 0.6288
vn -0.5366 0.6513 -0.5366
vn 0.5366 0.6513 -0.5366
vn 0.5366 0.6513 0.5366
vn 0.7064 0.0452 0.7064
vn -0.7061 0.0530 0.7061
vn -0.7064 0.0452 -0.7064
vn 0.7064 0.0452 -0.7064
vn 1.0000 0.0000 0.0000
vn -0.4513 0.7699 -0.4513
vn 0.0000 0.0000 1.0000
vn 0.7071 0.0000 -0.7071
vn -0.7071 0.0000 0.7071
vn 0.0000 0.0000 -1.0000
vn -1.0000 0.0000 0.0000
vn 0.5562 -0.0904 0.8261
vn -0.7071 0.0000 -0.7071
vn 0.7331 0.6801 0.0000
vn 0.0000 0.6801 0.7331
vn 0.4513 0.7699 -0.4513
vn -0.4513 0.7699 0.4513
vn 0.0000 0.6801 -0.7331
vn -0.7331 0.6801 0.0000
vn 0.4513 0.7699 0.4513
vn 0.4068 -0.8180 -0.4068
vn -0.4068 -0.8180 0.4068
vn 0.0000 -0.7379 -0.6749
vn -0.6749 -0.7379 0.0000
vn 0.4068 -0.8180 0.4068
vn -0.4068 -0.8180 -0.4068
vn 0.6749 -0.7379 0.0000
vn 0.0000 -0.7379 0.6749
vn 0.4767 0.7386 0.4767
vn 0.8541 -0.2035 -0.4786
vn -0.8858 -0.0987 0.4535
vn 0.5291 -0.1644 0.8325
vn -0.4767 0.7386 -0.4767
vn 0.7648 0.6443 0.0000
vn 0.0000 0.6443 0.7648
vn 0.4767 0.7386 -0.4767
vn -0.4767 0.7386 0.4767
vn 0.0000 0.6443 -0.7648
vn -0.7648 0.6443 0.0000
vn 0.0000 -0.5440 0.8391
vn 0.5406 -0.6446 -0.5406
vn -0.5406 -0.6446 0.5406
vn 0.0000 -0.5440 -0.8391
vn -0.8391 -0.5440 0.0000
vn 0.5406 -0.6446 0.5406
vn -0.5406 -0.6446 -0.5406
vn 0.8391 -0.5440 0.0000
vn 0.5497 -0.0308 0.8348
vn 0.5513 0.1593 0.8189
vn -0.5867 0.0000 0.8098
vn 0.5939 0.0000 -0.8046
vn 0.7071 0.0000 0.7071
vn 0.8716 0.0418 -0.4884
vn 0.5291 0.1644 0.8325
vn -0.8664 0.2291 0.4436
vn 0.8724 0.0000 -0.4889
vn 0.5469 0.1054 0.8305
vn -0.6266 0.0000 0.7793
vn 0.7066 -0.0378 0.7066
vn 0.0000 0.3418 0.9398
vn -0.0015 0.0319 0.9995
vn -0.8609 0.5082 0.0234
vn -0.9995 0.0319 0.0015
vn 0.5385 -0.0998 -0.8367
vn -0.5916 -0.0708 0.8031
vn 0.4924 -0.0408 -0.8694
vn 0.7957 0.0000 0.6057
vn -0.6242 0.0350 0.7805
vn 0.5407 0.0430 -0.8401
vn 0.4880 0.1389 -0.8617
vn 0.5932 0.0471 -0.8037
vn -0.7066 0.0396 0.7066
vn -0.6142 0.4955 0.6142
vn -0.6142 0.4955 -0.6142
vn 0.6142 0.4955 -0.6142
vn 0.6142 0.4955 0.6142
vn 0.0000 0.4955 0.8686
vn -0.8686 0.4955 0.0000
vn 0.8686 0.4955 0.0000
vn 0.0000 0.4955 -0.8686
usemtl Grey_Floor.001
s off
f 34//1 27//1 25//1
f 22//2 31//2 29//2
f 27//3 19//3 16//3
f 31//4 13//4 18//4
f 35//5 17//5 20//5
f 30//6 7//6 6//6
f 30//7 35//7 33//7
f 26//8 23//8 21//8
f 23//9 15//9 14//9
f 22//10 23//10 24//10
f 27//11 26//11 25//11
f 35//12 34//12 33//12
f 31//13 30//13 29//13
f 32//14 18//14 17//14
f 14//15 24//15 23//15
f 16//16 28//16 27//16
f 20//17 36//17 35//17
f 20//18 18//18 14//18
f 29//19 12//19 22//19
f 30//20 5//20 29//20
f 33//21 8//21 7//21
f 25//22 8//22 34//22
f 26//23 11//23 10//23
f 26//24 9//24 25//24
f 21//25 12//25 11//25
f 38//26 4//26 1//26
f 74//27 67//27 65//27
f 69//28 64//28 71//28
f 67//29 59//29 56//29
f 58//30 64//30 53//30
f 75//31 57//31 60//31
f 70//32 75//32 73//32
f 66//33 63//33 61//33
f 63//34 55//34 54//34
f 64//35 61//35 63//35
f 65//36 68//36 66//36
f 75//37 74//37 73//37
f 69//38 72//38 70//38
f 72//39 58//39 57//39
f 54//40 64//40 63//40
f 56//41 68//41 67//41
f 60//42 76//42 75//42
f 53//18 54//18 60//18
f 73//26 42//26 70//26
f 69//26 80//26 62//26
f 62//26 79//26 61//26
f 66//26 77//26 65//26
f 61//26 78//26 66//26
f 65//26 44//26 74//26
f 74//26 43//26 73//26
f 70//26 41//26 69//26
f 185//43 95//43 186//43
f 91//44 100//44 92//44
f 187//45 89//45 188//45
f 185//46 93//46 94//46
f 190//47 89//47 90//47
f 189//48 92//48 93//48
f 190//49 91//49 192//49
f 186//50 96//50 187//50
f 192//51 92//51 191//51
f 94//52 103//52 95//52
f 96//53 97//53 89//53
f 94//54 101//54 102//54
f 90//55 97//55 98//55
f 92//56 101//56 93//56
f 90//57 99//57 91//57
f 95//58 104//58 96//58
f 110//59 117//59 118//59
f 201//43 127//43 205//43
f 106//60 113//60 114//60
f 108//61 117//61 109//61
f 106//62 115//62 107//62
f 111//63 120//63 112//63
f 107//64 116//64 108//64
f 110//65 119//65 111//65
f 112//66 113//66 105//66
f 128//67 135//67 136//67
f 202//45 121//45 206//45
f 203//68 126//68 201//68
f 206//69 122//69 207//69
f 203//48 124//48 125//48
f 207//49 123//49 208//49
f 205//70 128//70 202//70
f 208//51 124//51 204//51
f 124//71 131//71 132//71
f 126//72 135//72 127//72
f 128//73 129//73 121//73
f 125//74 134//74 126//74
f 121//75 130//75 122//75
f 124//76 133//76 125//76
f 122//77 131//77 123//77
f 144//78 145//78 137//78
f 209//43 159//43 210//43
f 141//79 150//79 142//79
f 137//80 146//80 138//80
f 140//81 149//81 141//81
f 138//82 147//82 139//82
f 144//83 151//83 152//83
f 140//84 147//84 148//84
f 142//85 151//85 143//85
f 211//45 153//45 212//45
f 209//46 157//46 158//46
f 212//47 154//47 214//47
f 213//48 156//48 157//48
f 214//49 155//49 216//49
f 210//86 160//86 211//86
f 216//51 156//51 215//51
f 220//51 191//51 224//51
f 222//87 186//87 187//87
f 219//49 192//49 220//49
f 224//48 189//48 223//48
f 219//88 188//88 190//88
f 223//89 185//89 221//89
f 218//45 187//45 188//45
f 221//43 186//43 217//43
f 115//51 199//51 116//51
f 119//90 195//90 120//90
f 114//49 200//49 115//49
f 117//48 199//48 197//48
f 113//47 198//47 114//47
f 118//91 197//91 193//91
f 120//45 196//45 113//45
f 119//43 193//43 194//43
f 200//51 204//51 199//51
f 195//92 205//92 202//92
f 200//49 207//49 208//49
f 197//48 204//48 203//48
f 198//93 206//93 207//93
f 197//94 201//94 193//94
f 195//45 206//45 196//45
f 193//43 205//43 194//43
f 147//51 215//51 148//51
f 152//95 210//95 211//95
f 146//49 216//49 147//49
f 148//48 213//48 149//48
f 145//47 214//47 146//47
f 149//46 209//46 150//46
f 145//45 211//45 212//45
f 150//43 210//43 151//43
f 86//43 217//43 87//43
f 88//45 218//45 81//45
f 85//46 221//46 86//46
f 82//96 218//96 219//96
f 84//48 223//48 85//48
f 82//49 220//49 83//49
f 87//97 222//97 88//97
f 83//51 224//51 84//51
f 34//1 36//1 27//1
f 22//2 24//2 31//2
f 27//3 36//3 19//3
f 31//4 24//4 13//4
f 35//5 32//5 17//5
f 30//6 33//6 7//6
f 30//7 32//7 35//7
f 26//8 28//8 23//8
f 23//9 28//9 15//9
f 22//10 21//10 23//10
f 27//11 28//11 26//11
f 35//12 36//12 34//12
f 31//13 32//13 30//13
f 32//14 31//14 18//14
f 14//15 13//15 24//15
f 16//16 15//16 28//16
f 20//17 19//17 36//17
f 14//18 15//18 16//18
f 16//18 19//18 20//18
f 20//18 17//18 18//18
f 18//18 13//18 14//18
f 14//18 16//18 20//18
f 29//19 5//19 12//19
f 30//20 6//20 5//20
f 33//21 34//21 8//21
f 25//22 9//22 8//22
f 26//23 21//23 11//23
f 26//24 10//24 9//24
f 21//25 22//25 12//25
f 4//26 3//26 39//26
f 39//26 40//26 4//26
f 40//26 1//26 4//26
f 1//26 2//26 37//26
f 37//26 38//26 1//26
f 74//27 76//27 67//27
f 69//98 62//98 64//98
f 67//29 76//29 59//29
f 58//99 71//99 64//99
f 75//31 72//31 57//31
f 70//32 72//32 75//32
f 66//100 68//100 63//100
f 63//101 68//101 55//101
f 64//35 62//35 61//35
f 65//36 67//36 68//36
f 75//37 76//37 74//37
f 69//38 71//38 72//38
f 72//39 71//39 58//39
f 54//40 53//40 64//40
f 56//41 55//41 68//41
f 60//42 59//42 76//42
f 54//18 55//18 56//18
f 56//18 59//18 54//18
f 59//18 60//18 54//18
f 60//18 57//18 58//18
f 58//18 53//18 60//18
f 73//26 43//26 42//26
f 69//26 41//26 80//26
f 62//26 80//26 79//26
f 66//26 78//26 77//26
f 61//26 79//26 78//26
f 65//26 77//26 44//26
f 74//26 44//26 43//26
f 70//26 42//26 41//26
f 185//43 94//43 95//43
f 91//44 99//44 100//44
f 187//45 96//45 89//45
f 185//102 189//102 93//102
f 190//103 188//103 89//103
f 189//48 191//48 92//48
f 190//49 90//49 91//49
f 186//90 95//90 96//90
f 192//51 91//51 92//51
f 94//52 102//52 103//52
f 96//53 104//53 97//53
f 94//54 93//54 101//54
f 90//55 89//55 97//55
f 92//56 100//56 101//56
f 90//57 98//57 99//57
f 95//58 103//58 104//58
f 110//59 109//59 117//59
f 201//43 126//43 127//43
f 106//60 105//60 113//60
f 108//61 116//61 117//61
f 106//62 114//62 115//62
f 111//63 119//63 120//63
f 107//64 115//64 116//64
f 110//65 118//65 119//65
f 112//66 120//66 113//66
f 128//67 127//67 135//67
f 202//45 128//45 121//45
f 203//46 125//46 126//46
f 206//47 121//47 122//47
f 203//48 204//48 124//48
f 207//49 122//49 123//49
f 205//90 127//90 128//90
f 208//51 123//51 124//51
f 124//71 123//71 131//71
f 126//72 134//72 135//72
f 128//73 136//73 129//73
f 125//74 133//74 134//74
f 121//75 129//75 130//75
f 124//76 132//76 133//76
f 122//77 130//77 131//77
f 144//78 152//78 145//78
f 209//43 158//43 159//43
f 141//79 149//79 150//79
f 137//80 145//80 146//80
f 140//81 148//81 149//81
f 138//82 146//82 147//82
f 144//83 143//83 151//83
f 140//84 139//84 147//84
f 142//85 150//85 151//85
f 211//45 160//45 153//45
f 209//104 213//104 157//104
f 212//47 153//47 154//47
f 213//48 215//48 156//48
f 214//49 154//49 155//49
f 210//90 159//90 160//90
f 216//51 155//51 156//51
f 220//51 192//51 191//51
f 222//105 217//105 186//105
f 219//49 190//49 192//49
f 224//48 191//48 189//48
f 219//106 218//106 188//106
f 223//107 189//107 185//107
f 218//45 222//45 187//45
f 221//43 185//43 186//43
f 115//51 200//51 199//51
f 119//90 194//90 195//90
f 114//49 198//49 200//49
f 117//48 116//48 199//48
f 113//47 196//47 198//47
f 118//46 117//46 197//46
f 120//45 195//45 196//45
f 119//43 118//43 193//43
f 200//51 208//51 204//51
f 195//90 194//90 205//90
f 200//49 198//49 207//49
f 197//48 199//48 204//48
f 198//47 196//47 206//47
f 197//94 203//94 201//94
f 195//45 202//45 206//45
f 193//43 201//43 205//43
f 147//51 216//51 215//51
f 152//90 151//90 210//90
f 146//49 214//49 216//49
f 148//48 215//48 213//48
f 145//47 212//47 214//47
f 149//108 213//108 209//108
f 145//45 152//45 211//45
f 150//43 209//43 210//43
f 86//43 221//43 217//43
f 88//45 222//45 218//45
f 85//109 223//109 221//109
f 82//110 81//110 218//110
f 84//48 224//48 223//48
f 82//49 219//49 220//49
f 87//105 217//105 222//105
f 83//51 220//51 224//51
usemtl DarkGrey_Floor
f 8//46 3//46 7//46
f 5//45 37//45 12//45
f 11//49 1//49 10//49
f 7//43 4//43 6//43
f 9//48 39//48 8//48
f 10//51 40//51 9//51
f 6//90 38//90 5//90
f 12//47 2//47 11//47
f 79//49 47//49 78//49
f 42//90 46//90 41//90
f 78//51 51//51 77//51
f 77//48 52//48 44//48
f 41//45 45//45 80//45
f 44//46 49//46 43//46
f 80//47 48//47 79//47
f 47//26 84//26 51//26
f 43//43 50//43 42//43
f 51//26 85//26 52//26
f 46//26 81//26 45//26
f 52//26 86//26 49//26
f 45//26 82//26 48//26
f 49//26 87//26 50//26
f 48//26 83//26 47//26
f 50//26 88//26 46//26
f 100//48 109//48 101//48
f 98//49 107//49 99//49
f 103//90 112//90 104//90
f 99//51 108//51 100//51
f 102//43 111//43 103//43
f 104//45 105//45 97//45
f 101//46 110//46 102//46
f 97//47 106//47 98//47
f 132//48 141//48 133//48
f 130//49 139//49 131//49
f 135//90 144//90 136//90
f 131//51 140//51 132//51
f 134//43 143//43 135//43
f 136//45 137//45 129//45
f 133//46 142//46 134//46
f 129//47 138//47 130//47
f 155//18 162//18 163//18
f 162//49 173//49 163//49
f 159//18 168//18 160//18
f 155//18 164//18 156//18
f 159//18 166//18 167//18
f 153//18 168//18 161//18
f 157//18 166//18 158//18
f 153//18 162//18 154//18
f 157//18 164//18 165//18
f 168//45 169//45 161//45
f 165//46 180//46 166//46
f 163//51 176//51 164//51
f 164//48 177//48 165//48
f 167//90 184//90 168//90
f 161//47 172//47 162//47
f 166//43 181//43 167//43
f 170//111 172//111 169//111
f 175//112 173//112 174//112
f 178//113 180//113 177//113
f 183//114 181//114 182//114
f 170//115 184//115 183//115
f 174//116 172//116 171//116
f 180//117 182//117 181//117
f 176//118 178//118 177//118
f 174//26 171//26 179//26
f 8//46 39//46 3//46
f 5//45 38//45 37//45
f 11//49 2//49 1//49
f 7//43 3//43 4//43
f 9//48 40//48 39//48
f 10//51 1//51 40//51
f 6//90 4//90 38//90
f 12//47 37//47 2//47
f 79//49 48//49 47//49
f 42//90 50//90 46//90
f 78//51 47//51 51//51
f 77//48 51//48 52//48
f 41//45 46//45 45//45
f 44//46 52//46 49//46
f 80//47 45//47 48//47
f 47//26 83//26 84//26
f 43//43 49//43 50//43
f 51//26 84//26 85//26
f 46//26 88//26 81//26
f 52//26 85//26 86//26
f 45//26 81//26 82//26
f 49//26 86//26 87//26
f 48//26 82//26 83//26
f 50//26 87//26 88//26
f 100//48 108//48 109//48
f 98//49 106//49 107//49
f 103//90 111//90 112//90
f 99//51 107//51 108//51
f 102//43 110//43 111//43
f 104//45 112//45 105//45
f 101//46 109//46 110//46
f 97//47 105//47 106//47
f 132//48 140//48 141//48
f 130//49 138//49 139//49
f 135//90 143//90 144//90
f 131//51 139//51 140//51
f 134//43 142//43 143//43
f 136//45 144//45 137//45
f 133//46 141//46 142//46
f 129//47 137//47 138//47
f 155//18 154//18 162//18
f 162//49 172//49 173//49
f 159//18 167//18 168//18
f 155//18 163//18 164//18
f 159//18 158//18 166//18
f 153//18 160//18 168//18
f 157//18 165//18 166//18
f 153//18 161//18 162//18
f 157//18 156//18 164//18
f 168//45 184//45 169//45
f 165//46 177//46 180//46
f 163//51 173//51 176//51
f 164//48 176//48 177//48
f 167//90 181//90 184//90
f 161//47 169//47 172//47
f 166//43 180//43 181//43
f 170//111 171//111 172//111
f 175//112 176//112 173//112
f 178//113 179//113 180//113
f 183//114 184//114 181//114
f 170//115 169//115 184//115
f 174//116 173//116 172//116
f 180//117 179//117 182//117
f 176//118 175//118 178//118
f 171//26 170//26 183//26
f 183//26 182//26 171//26
f 182//26 179//26 171//26
f 179//26 178//26 175//26
f 175//26 174//26 179//26
